<?xml version="1.0" standalone="no"?>
<!DOCTYPE svg PUBLIC "-//W3C//DTD SVG 20010904//EN"
 "http://www.w3.org/TR/2001/REC-SVG-20010904/DTD/svg10.dtd">
<svg version="1.0" xmlns="http://www.w3.org/2000/svg"
 width="700.000000pt" height="700.000000pt" viewBox="0 0 700.000000 700.000000"
 preserveAspectRatio="xMidYMid meet">
<metadata>
Created by potrace 1.11, written by Peter Selinger 2001-2013
</metadata>
<g transform="translate(0.000000,700.000000) scale(0.100000,-0.100000)"
fill="#000000" stroke="none">
<path d="M3323 6852 c-28 -4 -73 -49 -75 -76 -3 -53 6 -73 58 -127 l55 -55
-131 -12 c-641 -61 -1232 -316 -1734 -751 -104 -90 -132 -132 -121 -182 9 -40
58 -79 100 -79 36 0 43 5 217 153 340 289 786 506 1233 601 126 26 335 56 394
56 l34 0 -50 -53 c-58 -61 -69 -93 -49 -142 18 -42 72 -70 116 -60 37 8 293
244 314 290 9 18 16 53 16 77 0 70 -12 84 -261 315 -37 35 -79 51 -116 45z"/>
<path d="M3888 6545 c-35 -20 -48 -44 -48 -90 0 -65 32 -95 116 -109 102 -17
143 -5 169 51 27 55 4 108 -60 141 -38 19 -147 24 -177 7z"/>
<path d="M4310 6459 c-39 -15 -60 -49 -60 -97 0 -69 47 -100 221 -149 56 -15
62 -15 95 0 65 32 79 122 25 171 -19 17 -214 86 -240 85 -9 0 -27 -5 -41 -10z"/>
<path d="M4775 6268 c-59 -32 -73 -105 -30 -156 33 -39 220 -135 249 -127 70
20 102 67 86 127 -13 46 -37 66 -143 122 -90 47 -126 54 -162 34z"/>
<path d="M5194 5996 c-30 -22 -47 -69 -40 -111 6 -28 22 -47 88 -101 45 -36
95 -72 111 -81 88 -45 183 60 131 145 -9 15 -52 56 -97 91 -67 54 -88 65 -126
68 -31 3 -53 -1 -67 -11z"/>
<path d="M3240 5849 c-781 -95 -1460 -571 -1810 -1267 -326 -651 -330 -1405
-10 -2057 303 -618 849 -1060 1519 -1230 1047 -265 2153 242 2634 1210 154
308 232 616 244 965 37 1055 -661 2010 -1684 2304 -209 60 -340 78 -593 82
-124 1 -259 -2 -300 -7z m1006 -891 c417 -181 617 -272 643 -295 74 -63 76
-72 79 -403 4 -327 -1 -400 -25 -400 -9 0 -124 47 -257 104 -133 57 -637 275
-1121 484 -484 209 -890 383 -903 387 -51 15 -16 39 188 127 660 286 646 281
742 267 27 -5 309 -121 654 -271z m-1042 -772 c561 -244 1151 -499 1309 -566
309 -131 365 -162 410 -226 39 -56 43 -98 39 -453 l-4 -303 -26 5 c-41 8
-2640 1137 -2694 1169 -34 21 -54 43 -72 80 l-26 52 0 336 c0 185 3 340 7 343
3 4 13 7 21 7 8 0 474 -200 1036 -444z m-688 -947 c192 -83 698 -302 1124
-485 426 -184 781 -338 789 -342 25 -14 24 -31 -3 -42 -14 -5 -191 -81 -393
-169 -203 -87 -385 -164 -406 -171 -22 -7 -68 -10 -105 -8 -61 4 -117 26 -662
262 -327 142 -616 271 -642 288 -33 21 -54 44 -72 81 l-26 51 0 336 c0 185 3
340 7 343 15 16 56 0 389 -144z"/>
<path d="M5593 5666 c-34 -16 -63 -60 -63 -98 0 -29 16 -52 105 -153 397 -450
652 -1051 700 -1650 l6 -80 -40 42 c-22 22 -50 48 -63 57 -79 56 -190 -44
-145 -130 23 -44 242 -277 279 -296 57 -31 137 -20 187 25 13 12 75 77 137
145 109 117 114 125 114 166 0 71 -60 118 -127 101 -16 -3 -52 -31 -80 -61
l-53 -54 0 38 c0 65 -29 281 -56 416 -99 497 -332 979 -661 1371 -143 170
-173 190 -240 161z"/>
<path d="M1214 5530 c-22 -9 -88 -83 -143 -159 -42 -59 -43 -111 -2 -152 31
-31 83 -39 121 -19 29 15 150 175 160 211 23 77 -60 150 -136 119z"/>
<path d="M905 5102 c-37 -24 -135 -205 -135 -250 0 -39 41 -88 80 -97 57 -12
97 19 153 120 61 111 71 168 36 209 -32 36 -92 45 -134 18z"/>
<path d="M682 4635 c-42 -35 -109 -231 -95 -278 10 -37 64 -77 104 -77 53 0
85 41 124 162 41 125 40 154 -7 193 -39 33 -87 33 -126 0z"/>
<path d="M554 4152 c-32 -21 -49 -61 -59 -147 -18 -151 167 -188 204 -41 19
75 14 141 -12 171 -30 35 -91 43 -133 17z"/>
<path d="M490 3692 c-19 -9 -92 -79 -162 -155 -124 -133 -128 -139 -128 -181
0 -61 43 -106 102 -106 35 0 46 7 97 58 l57 57 13 -128 c61 -653 326 -1262
765 -1761 96 -108 145 -126 209 -76 30 24 45 80 29 114 -5 12 -47 64 -91 115
-404 458 -658 1053 -706 1656 l-6 80 37 -40 c21 -22 49 -48 63 -57 83 -57 194
40 148 128 -24 45 -242 276 -279 296 -43 22 -104 23 -148 0z"/>
<path d="M6384 3200 c-12 -4 -30 -20 -42 -34 -26 -34 -47 -152 -33 -188 25
-66 114 -90 164 -44 29 27 49 90 49 157 0 59 -15 87 -57 105 -39 16 -51 16
-81 4z"/>
<path d="M6294 2790 c-12 -4 -31 -21 -43 -35 -22 -29 -81 -200 -81 -238 0 -38
36 -85 72 -95 78 -20 114 12 157 139 40 120 41 166 4 201 -32 29 -78 41 -109
28z"/>
<path d="M6074 2290 c-16 -16 -51 -72 -78 -125 -46 -91 -48 -98 -37 -133 21
-69 102 -98 158 -56 15 11 51 67 81 124 61 118 63 146 12 193 -43 38 -97 38
-136 -3z"/>
<path d="M5832 1878 c-22 -11 -137 -150 -160 -195 -16 -29 -15 -49 3 -88 25
-50 91 -70 142 -42 21 12 130 144 151 184 22 41 14 83 -22 119 -36 36 -70 43
-114 22z"/>
<path d="M5505 1496 c-16 -7 -68 -48 -115 -90 -293 -263 -677 -479 -1067 -597
-175 -53 -390 -94 -603 -114 l-65 -6 58 58 c52 53 57 63 57 102 0 57 -43 101
-100 101 -41 0 -63 -17 -220 -164 -103 -97 -126 -127 -134 -171 -13 -68 8
-107 107 -203 165 -161 205 -192 247 -192 57 0 100 44 100 101 0 39 -5 49 -56
100 l-56 57 48 6 c27 3 78 8 114 11 524 50 1067 263 1505 590 130 96 278 225
302 261 54 83 -32 189 -122 150z"/>
<path d="M1574 1350 c-57 -23 -81 -100 -46 -151 24 -37 168 -149 204 -160 71
-20 138 48 124 125 -6 31 -21 47 -92 104 -114 89 -142 102 -190 82z"/>
<path d="M1971 1044 c-50 -35 -57 -109 -15 -155 32 -35 200 -119 239 -119 79
0 125 100 74 164 -11 14 -62 48 -112 76 -99 54 -145 62 -186 34z"/>
<path d="M2440 833 c-67 -34 -72 -136 -8 -176 46 -29 223 -80 252 -73 48 12
76 49 76 99 0 63 -20 82 -128 122 -124 46 -149 50 -192 28z"/>
<path d="M2909 682 c-28 -25 -34 -37 -34 -71 0 -75 77 -121 200 -121 51 0 95
46 95 100 0 79 -38 108 -155 117 -69 5 -73 5 -106 -25z"/>
</g>
</svg>
